<svg id="Layer_1" data-name="Layer 1" xmlns="http://www.w3.org/2000/svg" viewBox="0 0 1080 1080"><defs><style>.cls-1,.cls-2{fill:none;}.cls-1{stroke:#fff;stroke-width:8px;}</style></defs><title>deepfake_requirement_icons</title><rect width="1080" height="1080"/><ellipse class="cls-1" cx="354.64" cy="744.64" rx="133.93" ry="172.5"/><ellipse class="cls-1" cx="267.86" cy="725.36" rx="32.68" ry="18.21"/><ellipse class="cls-1" cx="383.57" cy="725.36" rx="32.68" ry="18.21"/><rect class="cls-2" width="1080" height="1080"/><polyline class="cls-1" points="325.71 738.59 303.06 811.07 348.37 811.07"/><ellipse class="cls-1" cx="325.71" cy="850.71" rx="47.14" ry="8.57"/><ellipse class="cls-1" cx="725.36" cy="744.64" rx="133.93" ry="172.5"/><ellipse class="cls-1" cx="812.14" cy="725.36" rx="32.68" ry="18.21"/><ellipse class="cls-1" cx="696.43" cy="725.36" rx="32.68" ry="18.21"/><rect class="cls-2" width="1080" height="1080"/><polyline class="cls-1" points="754.28 738.59 776.93 811.07 731.63 811.07"/><ellipse class="cls-1" cx="754.29" cy="850.71" rx="47.14" ry="8.57"/><ellipse class="cls-1" cx="354.64" cy="335.36" rx="133.93" ry="172.5"/><ellipse class="cls-1" cx="296.79" cy="345" rx="32.68" ry="13.39"/><ellipse class="cls-1" cx="412.5" cy="345" rx="32.68" ry="13.39"/><rect class="cls-2" width="1080" height="1080"/><polygon class="cls-1" points="331.99 421.07 377.29 421.07 354.64 348.59 331.99 421.07"/><ellipse class="cls-1" cx="354.64" cy="451.07" rx="42.32" ry="8.57"/><ellipse class="cls-1" cx="725.36" cy="335.36" rx="133.93" ry="172.5"/><ellipse class="cls-1" cx="667.5" cy="287.14" rx="32.68" ry="18.21"/><ellipse class="cls-1" cx="783.21" cy="287.14" rx="32.68" ry="18.21"/><rect class="cls-2" width="1080" height="1080"/><polygon class="cls-1" points="702.71 353.57 748.01 353.57 725.36 281.09 702.71 353.57"/><ellipse class="cls-1" cx="725.36" cy="393.21" rx="47.14" ry="18.21"/></svg>