<svg id="Layer_1" data-name="Layer 1" xmlns="http://www.w3.org/2000/svg" viewBox="0 0 1080 1080"><defs><style>.cls-1{fill:none;stroke:#fff;stroke-width:4px;}</style></defs><title>deepfake_requirement_icons</title><rect width="1080" height="1080"/><ellipse class="cls-1" cx="287.68" cy="540" rx="200.89" ry="258.75"/><path class="cls-1" d="M325.45,511.07c0,15.09,21.94,27.32,49,27.32s49-12.23,49-27.32"/><polygon class="cls-1" points="253.7 639.64 321.65 639.64 287.68 530.92 253.7 639.64"/><ellipse class="cls-1" cx="287.68" cy="699.11" rx="49.02" ry="27.32"/><path class="cls-1" d="M151.88,511.07c0,15.09,21.94,27.32,49,27.32s49-12.23,49-27.32"/><ellipse class="cls-1" cx="792.32" cy="540" rx="200.89" ry="258.75"/><path class="cls-1" d="M705.54,531.16c27.07,0,49-9,49-20.09S732.61,491,705.54,491s-49,9-49,20.09S678.46,531.16,705.54,531.16Z"/><path class="cls-1" d="M879.11,531.16c27.07,0,49-9,49-20.09s-22-20.09-49-20.09-49,9-49,20.09S852,531.16,879.11,531.16Z"/><polygon class="cls-1" points="758.35 639.64 826.3 639.64 792.32 530.92 758.35 639.64"/><circle class="cls-1" cx="792.32" cy="713.57" r="27.32"/><line class="cls-1" x1="661.69" y1="427.9" x2="749.38" y2="478.53"/><line class="cls-1" x1="922.95" y1="427.9" x2="835.26" y2="478.53"/></svg>